<svg width="800" height="600" xmlns="http://www.w3.org/2000/svg">
 <title>Cactus</title>
 <defs>
  <linearGradient y2="0" x2="1" y1="0" x1="0" id="svg_76">
   <stop offset="0" stop-color="#007f3f"/>
   <stop offset="1" stop-opacity="0.99609" stop-color="#00bf00"/>
  </linearGradient>
 </defs>
 <g id="Layer_1">
  <title>Layer 1</title>
  <path stroke="#000000" id="svg_3" d="m317.99992,488c-0.33333,-28.33333 1.83312,-50.16721 -2.49988,-84.50004c-14.16671,-4.333 -31.83312,-10.16588 -36.50062,-18.49855c-3.33306,-6.66825 -7.16608,-45.33383 -1.49988,-50.50219c4.16696,-4.99959 9.33383,-4.9996 15.00066,-0.49997c3.33306,7.33424 1.66653,19.66808 1.99984,30.50203c2.16713,16.99859 14.83337,18.49847 23,13.49889c0,-26.16674 -1.99983,-66.83227 0,-78.50021c3.00033,-11.99901 14.99992,-10.99909 21,0c1.49988,10.33515 0.49996,64.66667 0.49996,97c3.66697,12.49897 10.83365,-0.49996 21.00009,-8.99925c3.09072,-19 -0.99984,-18.50013 1.49995,-34.00075c4,-11 11.11077,-15 18,0c3.11077,30 0.50029,45.49772 -6.49954,51.00025c-15.49871,15.9995 -27.99967,13.99908 -30.00017,20.99917c-3.00033,12.50046 -2.49979,62.06577 3.49971,62.00058l-28.50012,0.50004z" opacity="NaN" stroke-width="3" fill="url(#svg_76)"/>
 </g>
</svg>
