<svg xmlns="http://www.w3.org/2000/svg" viewBox="0 0 300 166">
	<style>
.cloud {
	stroke: black;
	stroke-width: 2px;
	fill: white;
}
	</style>
	<g>
		<path d="M 193 0 C 165 0 140 15 129 37 C 124 34 118 32 112 32 C 95 32 81 46 77 65 C 69 61 61 60 51 60 C 23 60 1 75 1 94 C 1 111 19 125 44 127 C 42 130 42 131 42 133 C 42 151 91 166 152 166 C 213 166 262 151 262 133 C 262 132 262 131 261 129 C 264 130 266 131 269 131 C 286 131 299 120 299 106 C 299 92 286 81 269 82 C 267 82 266 82 263 83 C 265 77 267 72 267 66 C 267 29 234 0 194 0 Z" class="cloud" />
	</g>
</svg>