<svg xmlns="http://www.w3.org/2000/svg" viewBox="0 0 25 10">
	<style>
.main {
	stroke: black;
	stroke-width: 0.04px;
}
.wheel {
	stroke-width: 0.15px;
	fill: #bbb;
}
line {
	stroke: black;
	stroke-width: 0.1px;
}
	</style>
	<g>
		<rect id="connectorLeft" class="main" style="stroke-width: 0.1px;" x="0" y="7.5" width="2" height="1" fill="url(#connector_gradient)" />
		<path id="cowcatcher" class="main" d="M 22 8 L 24 10 L 22.5 10 Z" fill="url(#grad_cowcatcher)" />
		<rect id="trainfront1" class="main" x="22" y="4" width="0.2" height="3" fill="url(#grad_vertical)" />
		<rect id="trainfront2" class="main" x="22.2" y="5" width="0.2" height="1" fill="url(#grad_vertical)" />
		<path id="smokestack" class="main" d="M 16 0.5 L 17 0.5 L 17 1 L 16.75 1 L 16.75 1.25 L 17 1.5 L 17 2 L 16.75 2.25 L 16.75 5 L 16.25 5 L 16.25 2.25 L 16 2 L 16 1.5 L 16.25 1.25 L 16.25 1 L 16 1 Z" fill="url(#grad_horizontal)" />
		<rect id="train_mainbody" class="main" x="7" y="3" width="15" height="5" fill="url(#grad_vertical)" />
		<path id="main_back" class="main" d="M 2 9 L 1 9 L 1 4 L 4 4 L 4 2 L 3 1 L 2 1 L 2 0.5 L 7.5 0.5 L 7.5 1 L 7 1 L 7 5 Z" fill="#666" />
		<path id="main_bottom" class="main" d="M 22 8 L 22.25 9 L 2 9 L 2 8 L 3 7 L 3 5 L 7 5 L 8 8 Z" fill="#444" />
		<circle id="wheel1" class="main wheel" cx="3.5" cy="9" r="1" />
		<circle id="wheel2" class="main wheel" cx="6" cy="9" r="1" />
		<circle id="wheel3" class="main wheel" cx="18" cy="9" r="1" />
		<circle id="wheel4" class="main wheel" cx="20.5" cy="9" r="1" />
		<g>
			<line id="piston1" x1="13" y1="8.75" x2="18" y2="9.5">
				<animate
					attributeName="x2"
					values="18;18.35;18.5;18.35;18;17.65;17.5;17.65;18"
					dur="0.3s"
					repeatCount="indefinite"
				/>
				<animate
					attributeName="y2"
					values="8.5;8.65;9;9.35;9.5;9.35;9;8.65;8.5"
					dur="0.3s"
					repeatCount="indefinite"
				/>
			</line>
			<line id="piston2" x1="13" y1="9" x2="18" y2="9.5">
				<animate
					attributeName="x1"
					values="18;18.35;18.5;18.35;18;17.65;17.5;17.65;18"
					dur="0.3s"
					repeatCount="indefinite"
				/>
				<animate
					attributeName="y1"
					values="8.5;8.65;9;9.35;9.5;9.35;9;8.65;8.5"
					dur="0.3s"
					repeatCount="indefinite"
				/>
				<animate
					attributeName="x2"
					values="20.5;20.85;21;20.85;20.5;20.15;20;20.15;20.5"
					dur="0.3s"
					repeatCount="indefinite"
				/>
				<animate
					attributeName="y2"
					values="8.5;8.65;9;9.35;9.5;9.35;9;8.65;8.5"
					dur="0.3s"
					repeatCount="indefinite"
				/>
			</line>
			<circle id="piston1edge" cx="13" cy="9" r="0.2">
				<animate
					attributeName="cx"
					values="18;18.35;18.5;18.35;18;17.65;17.5;17.65;18"
					dur="0.3s"
					repeatCount="indefinite"
				/>
				<animate
					attributeName="cy"
					values="8.5;8.65;9;9.35;9.5;9.35;9;8.65;8.5"
					dur="0.3s"
					repeatCount="indefinite"
				/>
			</circle>
			<circle id="piston2edge" cx="18" cy="9.5" r="0.2">
				<animate
					attributeName="cx"
					values="20.5;20.85;21;20.85;20.5;20.15;20;20.15;20.5"
					dur="0.3s"
					repeatCount="indefinite"
				/>
				<animate
					attributeName="cy"
					values="8.5;8.65;9;9.35;9.5;9.35;9;8.65;8.5"
					dur="0.3s"
					repeatCount="indefinite"
				/>
			</circle>
			<rect id="piston" class="main" x="10" y="8.25" width="4" height="1" fill="url(#grad_vertical)" />
		</g>
	</g>
	<defs>
		<linearGradient y2="1" x2="0" y1="0" x1="0" id="grad_vertical">
			<stop offset="0" stop-color="#111"/>
			<stop offset="0.33" stop-color="#4d4d4d"/>
			<stop offset="0.66" stop-color="#3f3f3f"/>
			<stop offset="1" stop-color="#111"/>
		</linearGradient>
		<linearGradient y2="0" x2="1" y1="0" x1="0" id="grad_horizontal">
			<stop offset="0" stop-color="#111"/>
			<stop offset="0.33" stop-color="#4d4d4d"/>
			<stop offset="0.66" stop-color="#3f3f3f"/>
			<stop offset="1" stop-color="#111"/>
		</linearGradient>
		<linearGradient y2="1" x2="1" y1="0" x1="0" id="grad_cowcatcher">
			<stop offset="0" stop-color="#212121"/>
			<stop offset="1" stop-color="#b2b2b2"/>
		</linearGradient>
		<linearGradient y2="1" x2="0" y1="0" x1="0" id="connector_gradient">
			<stop offset="0" stop-color="#bbb" />
			<stop offset="0.5" stop-color="white" />
			<stop offset="1" stop-color="#bbb" />
		</linearGradient>
	</defs>
</svg>
