<svg width="800" height="600" xmlns="http://www.w3.org/2000/svg">
 <title>Mountains</title>

 <g>
  <title>Layer 1</title>
  <path id="svg_4" d="m-1,321l802,0l0,-75l-144,-209l-114,188l-68,-103l-110,134c0,0 -113,-169 -113,-168c0,1 -94,104 -94,104c0,0 -93,-100 -93,-100c0,0 -66,158 -66,158l0,71z" opacity="NaN" stroke="#000" fill="#bf5f00"/>
  <path id="svg_5" d="m66,88l-34,84l20,8l5,-24c0,0 34,24 34,24c0,0 5,-18 5,-18c0,0 25,14 25,14c0,0 -2,-28 -2,-28l-53,-60z" opacity="NaN" stroke="#000" fill="#ffffff"/>
  <path id="svg_6" d="m604,125l53,-91l66,97l-19,22l-19,-31l-11,20l-16,-24l-14,16l-9,-11l-20,29l-11,-27z" opacity="NaN" stroke="#000" fill="#ffffff"/>
  <path id="svg_7" d="m214.00001,130l38,-44l42.66662,64.33326l-25.66672,-10.66671l-17.9999,6.33345l-12.33332,-15.66668l-24.66668,-0.33332z" opacity="NaN" stroke="#000" fill="#ffffff"/>
  <path id="svg_8" d="m441,164l33,-52l31,53l-24,-3l-8,8c0,0 -20,-8 -20,-7l-12,1z" opacity="NaN" stroke="#000" fill="#ffffff"/>
 </g>
</svg>