<svg width="800" height="600" xmlns="http://www.w3.org/2000/svg">
 <title>Player</title>
 <g id="Layer_1">
  <title>Layer 1</title>
  <path id="svg_4" d="m232.82459,574.35081l53,1l63,-101l49,102l45,0l-40.10489,-135.31466l0.33274,-58.66368l40.57867,-8.50993l0.19348,-57.51173l-11.7938,-39.19169c-11.8246,-10.82281 -43.6474,-3.05423 -57.67998,-7.26401c-1.22785,-7.19169 0.47378,-13.5443 0.47378,-13.5443c0,0 11.95114,-2.26401 26.33453,-9.98192c5.61303,-5.61303 8,-7.52801 10.80651,-17.35082c1.92948,-16.31287 2.57867,-17.14282 0.82459,-26.96563l57.2566,-0.14607l-50.44446,-15.33333l-18.66666,-43.66667l-58.88889,0.44444l-17.11111,40.22222l-54.11111,9.77778c0,0 56,4 57,4c1,0 -1.68355,19.87882 0,29c3.50815,6.73435 6.33453,11.0886 13,16c8.06873,7.71792 14,9 14,9c1.75407,11.92769 -2,18 -2,18c0,0 -43,2 -43,2l-17,25c0,0 -40,31 -40,31c0,0 -49.64175,0 -50.63111,0l1.77215,-3.24772l-2.77394,-1.73599l-4.19348,5.40505l-47.17362,2.57866c0,0 2,16 2,16c0,0 27,0 27,0c1.15853,20.10369 15.12177,-5.04767 14,34l15,1l2,-28l59,4l43,-22l-26,108l-53,131z" opacity="NaN" stroke="#000" fill="#000000"/>
 </g>

</svg>
