<svg xmlns="http://www.w3.org/2000/svg" viewBox="0 0 320 440">
	<path d="M 79 440 L 134 440 L 200 332 L 253 440 L 298 440 L 254 299 L 254 240 L 295 231 L 295 173 L 283 134 C 271 123 239 131 225 127 C 224 120 225 113 225 113 C 225 113 237 111 251 103 C 257 97 259 95 262 86 C 264 70 265 69 263 59 L 320 59 L 270 44 L 251 0 L 192 0 L 175 40 L 121 50 L 178 54 C 179 54 176 74 178 83 C 182 90 184 94 191 99 C 199 107 205 108 205 108 C 207 120 203 126 203 126 L 160 128 L 143 153 L 103 184 L 52 184 L 54 181 L 51 179 L 47 184 L 0 187 L 2 203 L 29 203 C 30 223 44 198 43 237 L 58 238 L 60 210 L 119 214 L 162 192 L 136 300 Z" fill="black"/>
</svg>
