<svg xmlns="http://www.w3.org/2000/svg" viewBox="0 0 800 600">
	<defs>
		<linearGradient y2="0" x2="0" y1="1" x1="0" id="svg_4">
			<!-- linear-gradient(0deg, #27a2c4 0%, #0000c4 100%); -->
			<stop offset="0" stop-color="#27a2c4" />
			<stop offset="1" stop-color="#0000c4" />
		</linearGradient>
	</defs>
	<style>
.cloud {
	stroke: black;
	stroke-width: 1px;
	fill: white;
}
	</style>
	<g>
		<rect x="0" y="0" width="800" height="600" fill="url(#svg_4)" />
		<path d="M 212 18 C 184 18 159 33 148 55 C 143 52 137 50 131 50 C 114 50 100 64 96 83 C 88 79 80 78 70 78 C 42 78 20 93 20 112 C 20 129 38 143 63 145 C 61 148 61 149 61 151 C 61 169 110 184 171 184 C 232 184 281 169 281 151 C 281 150 281 149 280 147 C 283 148 285 149 288 149 C 305 149 318 138 318 124 C 318 110 305 99 288 100 C 286 100 285 100 282 101 C 284 95 286 90 286 84 C 286 47 253 18 213 18 Z" class="cloud" />
		<path d="M 212 18 C 184 18 159 33 148 55 C 143 52 137 50 131 50 C 114 50 100 64 96 83 C 88 79 80 78 70 78 C 42 78 20 93 20 112 C 20 129 38 143 63 145 C 61 148 61 149 61 151 C 61 169 110 184 171 184 C 232 184 281 169 281 151 C 281 150 281 149 280 147 C 283 148 285 149 288 149 C 305 149 318 138 318 124 C 318 110 305 99 288 100 C 286 100 285 100 282 101 C 284 95 286 90 286 84 C 286 47 253 18 213 18 Z" class="cloud" transform="translate(208 257)" />
	</g>
</svg>