<svg width="800.0000000000001" height="600" xmlns="http://www.w3.org/2000/svg">
 <title>Sky</title>
 <defs>
  <linearGradient y2="0" x2="0" y1="1" x1="0" id="svg_4">
   <stop stop-opacity="0.99609" offset="0" stop-color="#27a2c4"/>
   <stop offset="1" stop-opacity="0.99219" stop-color="#0000c4"/>
  </linearGradient>
 </defs>
 <g id="Layer_1">
  <title>Layer 1</title>
  <path id="svg_16" d="m6.50161,4.50121l769.00305,0l0,406.00162l-769.00305,0l0,-406.00162z" transform="translate(1 0) translate(5.00002 27.0001) translate(3.00001 -4.00002) translate(775.505 4.50121) scale(1.01691 1) translate(-775.505 -4.50121) translate(6.50161 4.50121) scale(1.013 1) translate(-6.50161 -4.50121) translate(6.50161 410.503) scale(1 1.06158) translate(-6.50161 -410.503) translate(6.50161 4.50121) scale(1.0039 1) translate(-6.50161 -4.50121)" opacity="undefined" stroke="#000" fill="url(#svg_4)"/>
  <path id="svg_2" d="m212.50864,18.27344c-28.56444,0 -53.08249,14.81322 -65.08365,36.1982c-4.7932,-2.67596 -10.08009,-4.29625 -15.72245,-4.29625c-17.06268,0 -31.26126,13.72618 -35.64974,32.35901c-7.49058,-2.96072 -16.20005,-4.7533 -25.50328,-4.7533c-27.90971,0 -50.54951,15.27039 -50.54951,34.09579c0,16.99312 18.56764,30.96303 42.68829,33.54732c-1.08106,1.83421 -1.91961,3.65059 -1.91961,5.57599c0,18.02431 49.38134,32.72462 110.23999,32.72462c60.85864,0 110.24005,-14.70032 110.23999,-32.72462c0,-1.21274 -0.75272,-2.29501 -1.18832,-3.47357c2.66562,0.6629 5.30496,1.37115 8.22687,1.37115c16.28061,0.00005 29.5253,-11.06223 29.5253,-24.6806c0,-13.61838 -13.24469,-24.68059 -29.5253,-24.68059c-1.99515,0 -3.69165,0.68915 -5.57599,1.00551c1.64767,-5.44531 2.74228,-11.00153 2.74228,-16.91078c0,-36.04859 -32.63087,-65.35786 -72.94485,-65.35786l-0.00002,-0.00002z" opacity="NaN" stroke="#000" fill="#ffffff"/>
  <path transform="translate(208 257)" id="svg_3" d="m454.50864,-86.72656c-28.56444,0 -53.08249,14.81322 -65.08365,36.1982c-4.7932,-2.67596 -10.08009,-4.29625 -15.72245,-4.29625c-17.06268,0 -31.26126,13.72618 -35.64974,32.35901c-7.49058,-2.96072 -16.20005,-4.7533 -25.50328,-4.7533c-27.90971,0 -50.54951,15.27039 -50.54951,34.09579c0,16.99312 18.56764,30.96303 42.68829,33.54732c-1.08106,1.83421 -1.91961,3.65059 -1.91961,5.57599c0,18.02431 49.38134,32.72462 110.23999,32.72462c60.85864,0 110.24005,-14.70032 110.23999,-32.72462c0,-1.21274 -0.75272,-2.29501 -1.18832,-3.47357c2.66562,0.6629 5.30496,1.37115 8.22687,1.37115c16.28061,0.00005 29.5253,-11.06223 29.5253,-24.6806c0,-13.61838 -13.24469,-24.68059 -29.5253,-24.68059c-1.99515,0 -3.69165,0.68915 -5.57599,1.00551c1.64767,-5.44531 2.74228,-11.00153 2.74228,-16.91078c0,-36.04859 -32.63087,-65.35786 -72.94485,-65.35786l-0.00002,-0.00002z" opacity="NaN" stroke="#000" fill="#ffffff"/>
 </g>
</svg>